<?xml version="1.0" encoding="UTF-8"?>
<svg id="Lag_2" xmlns="http://www.w3.org/2000/svg" viewBox="0 0 194.96 48.53">
  <defs>
    <style>
      .cls-1 {
        fill: #a62a2a;
      }
    </style>
  </defs>
  <g id="Layer_1">
    <g>
      <path d="M181.99,12.89h12.97v.87c0,3.56-2.87,6.41-6.48,6.41s-6.49-2.85-6.49-6.41v-.87Z"/>
      <path d="M60.55,27.64c0,3.81,2.56,6.73,6.96,6.73s6.96-2.93,6.96-6.73-2.56-6.79-6.96-6.79-6.96,3.1-6.96,6.79M84.95,42.63h-10.83v-3.34h-.12c-1.9,2.99-5.65,4.33-9.22,4.33-9.05,0-15.41-7.44-15.41-16.05s6.25-15.98,15.29-15.98c3.51,0,7.2,1.29,9.46,3.92v-2.93h10.83v30.04Z"/>
      <path d="M114.24,0v15c-2.33-2.72-6.13-4.04-9.75-4.04-9.32,0-15.77,7.6-15.77,16.48s6.56,16.54,15.89,16.54c3.68,0,7.55-1.39,9.51-4.47h.12v3.44h11.16V0h-11.16ZM107.44,34.44c-4.54,0-7.18-3.02-7.18-6.94s2.64-7,7.18-7,7.18,3.2,7.18,7-2.64,6.94-7.18,6.94Z"/>
      <rect x="168.81" y="12.99" width="10.74" height="29.8"/>
      <path d="M139.95,27.64c0,3.81,2.56,6.73,6.96,6.73s6.96-2.93,6.96-6.73-2.56-6.79-6.96-6.79-6.96,3.1-6.96,6.79M164.35,42.63h-10.83v-3.34h-.12c-1.9,2.99-5.65,4.33-9.22,4.33-9.05,0-15.41-7.44-15.41-16.05s6.25-15.98,15.29-15.98c3.51,0,7.2,1.29,9.46,3.92v-2.93h10.83v30.04Z"/>
      <circle class="cls-1" cx="22.98" cy="25.55" r="22.98"/>
      <g>
        <path d="M24.44,12.94h12.97v.87c0,3.56-2.87,6.41-6.48,6.41s-6.49-2.85-6.49-6.41v-.87Z"/>
        <rect x="11.25" y="13.04" width="10.74" height="29.8"/>
      </g>
    </g>
  </g>
</svg>